<svg preserveAspectRatio="none" overflow="visible" style="display: block;" width="324.988" height="384.768" viewBox="0 0 324.988 384.768" fill="none" xmlns="http://www.w3.org/2000/svg">
<g id="Effect" opacity="0.56">
<path id="Rectangle 91" d="M2.87847e-06 226.17L0 160.318L162.494 185.487L162.494 199.278L2.87847e-06 226.17Z" fill="url(#paint0_linear_0_10)"/>
<path id="Rectangle 93" d="M67.1912 351.623L27.8614 305.059L157.794 186.82L166.03 196.571L67.1912 351.623Z" fill="url(#paint1_linear_0_10)"/>
<path id="Rectangle 95" d="M296.785 304.914L257.456 351.478L157.587 197.646L165.823 187.894L296.785 304.914Z" fill="url(#paint2_linear_0_10)"/>
<path id="Rectangle 92" d="M324.988 158.598L324.988 224.449L162.494 199.281L162.494 185.49L324.988 158.598Z" fill="url(#paint3_linear_0_10)"/>
<path id="Rectangle 94" d="M256.632 31.7676L295.962 78.3317L166.029 196.571L157.793 186.819L256.632 31.7676Z" fill="url(#paint4_linear_0_10)"/>
<path id="Rectangle 96" d="M26.6252 80.625L65.955 34.0608L165.824 187.893L157.587 197.645L26.6252 80.625Z" fill="url(#paint5_linear_0_10)"/>
<path id="Rectangle 89" d="M133.083 0H188.704L167.446 192.383H155.797L133.083 0Z" fill="url(#paint6_linear_0_10)"/>
<path id="Rectangle 90" d="M190.16 384.768L134.539 384.768L155.798 192.384L167.446 192.384L190.16 384.768Z" fill="url(#paint7_linear_0_10)"/>
</g>
<defs>
<linearGradient id="paint0_linear_0_10" x1="1.28218" y1="193.227" x2="162.494" y2="193.362" gradientUnits="userSpaceOnUse">
<stop stop-color="white" stop-opacity="0"/>
<stop offset="1" stop-color="#FFDBE7"/>
</linearGradient>
<linearGradient id="paint1_linear_0_10" x1="48.4229" y1="327.256" x2="181.572" y2="215.016" gradientUnits="userSpaceOnUse">
<stop stop-color="white" stop-opacity="0"/>
<stop offset="1" stop-color="#FFDBE7"/>
</linearGradient>
<linearGradient id="paint2_linear_0_10" x1="276.204" y1="327.135" x2="143.231" y2="214.598" gradientUnits="userSpaceOnUse">
<stop stop-color="white" stop-opacity="0"/>
<stop offset="1" stop-color="#FFDBE7"/>
</linearGradient>
<linearGradient id="paint3_linear_0_10" x1="323.706" y1="191.54" x2="162.494" y2="191.405" gradientUnits="userSpaceOnUse">
<stop stop-color="white" stop-opacity="0"/>
<stop offset="1" stop-color="#FFDBE7"/>
</linearGradient>
<linearGradient id="paint4_linear_0_10" x1="275.4" y1="56.1349" x2="142.252" y2="168.375" gradientUnits="userSpaceOnUse">
<stop stop-color="white" stop-opacity="0"/>
<stop offset="1" stop-color="#FFDBE7"/>
</linearGradient>
<linearGradient id="paint5_linear_0_10" x1="47.2068" y1="58.4045" x2="180.18" y2="170.941" gradientUnits="userSpaceOnUse">
<stop stop-color="white" stop-opacity="0"/>
<stop offset="1" stop-color="#FFDBE7"/>
</linearGradient>
<linearGradient id="paint6_linear_0_10" x1="160.908" y1="1.51802" x2="160.684" y2="192.383" gradientUnits="userSpaceOnUse">
<stop stop-color="white" stop-opacity="0"/>
<stop offset="1" stop-color="#FFDBE7"/>
</linearGradient>
<linearGradient id="paint7_linear_0_10" x1="162.336" y1="383.25" x2="162.56" y2="192.384" gradientUnits="userSpaceOnUse">
<stop stop-color="white" stop-opacity="0"/>
<stop offset="1" stop-color="#FFDBE7"/>
</linearGradient>
</defs>
</svg>
